<?xml version="1.0" encoding="UTF-8"?>
<svg xmlns="http://www.w3.org/2000/svg" width="143" height="16" viewBox="0 0 143 16" fill="none">
  <path d="M81.807 0.10791V15.2668H79.7102L79.7073 0.10791H81.807ZM84.4781 15.3243L87.2028 0.164384L91.6467 11.1232L96.2487 0.164384L98.6974 15.3243H96.6936L95.4443 6.81298L91.6131 15.3243L87.8903 6.80341L86.4991 15.3243H84.4781ZM103.27 7.05898H104.056C105.987 7.05898 106.953 6.2492 106.953 4.62965C106.953 3.06274 105.957 2.2788 103.965 2.2788H103.27V7.05898ZM103.27 9.18393V15.3243H101.166V0.164384H103.55C104.717 0.164384 105.6 0.253402 106.196 0.430481C106.797 0.60756 107.327 0.941617 107.785 1.43361C108.585 2.2855 108.985 3.36138 108.985 4.65932C108.985 6.04915 108.557 7.15087 107.703 7.96352C106.848 8.77712 105.695 9.18297 104.245 9.18297H103.27V9.18393ZM116.599 9.853L114.653 4.99529L112.615 9.853H116.599ZM117.406 11.8794H111.791L110.33 15.3243H108.198L114.689 0.164384L120.949 15.3243H118.782L117.406 11.8794ZM131.256 1.23069V3.83423C130.09 2.77175 128.883 2.24052 127.636 2.24052C126.262 2.24052 125.104 2.7775 124.163 3.85337C123.216 4.92254 122.742 6.23102 122.742 7.77782C122.742 9.30549 123.216 10.5948 124.163 11.6448C125.11 12.6958 126.27 13.2213 127.644 13.2213C128.355 13.2213 128.958 13.095 129.454 12.8432C129.732 12.7188 130.019 12.5484 130.316 12.334C130.614 12.1206 130.927 11.8631 131.256 11.5606V14.212C130.102 14.9222 128.889 15.3243 127.618 15.3243C125.708 15.3243 124.077 14.5509 122.725 13.0988C121.38 11.6334 120.708 9.86544 120.708 7.79601C120.708 5.94099 121.27 4.28697 122.396 2.83397C123.781 1.05552 125.574 0.165341 127.775 0.165341C128.975 0.165341 130.136 0.521414 131.256 1.23164V1.23069ZM139.012 2.31518V15.3233H136.913V2.31613H133.712V0.164384H142.203V2.31518H139.012Z" fill="white"/>
  <path d="M39.4781 9.38344C39.312 9.87668 39.0486 10.3316 38.7037 10.7215C38.3639 11.0948 37.9504 11.3915 37.4594 11.6068C36.9674 11.8193 36.4093 11.9275 35.7842 11.9275H34.9524V3.44453H35.7833C36.3959 3.44453 36.9482 3.55268 37.4393 3.76516C37.913 3.96775 38.3376 4.26966 38.6846 4.65049C39.0215 5.02377 39.2838 5.47553 39.4676 5.99716C39.6523 6.51879 39.7433 7.08444 39.7433 7.68455C39.7433 8.30285 39.6543 8.86755 39.4781 9.38344ZM42.9892 4.80268C42.6503 3.91615 42.1531 3.09857 41.5218 2.38978C40.9083 1.70461 40.1703 1.14208 39.347 0.732058C38.5219 0.316291 37.6099 0.102408 36.6859 0.108018L31.3408 0.10791V15.264H36.6869C37.6431 15.264 38.5381 15.0534 39.3661 14.6399C40.1907 14.2269 40.9288 13.6604 41.5409 12.9707C42.3718 12.0375 42.9624 10.9053 43.307 9.5739C43.3616 9.36334 43.4037 9.14703 43.4334 8.93072C43.6344 7.46729 43.4879 6.08808 42.9892 4.80268ZM53.8077 3.50195V0.164488H45.903V15.3233H53.8077V11.9858H49.5117V9.37195H53.5674V6.03448H49.5117V3.50195H53.8077ZM64.3093 3.50195V0.164488H56.4046V15.3233H64.3093V11.9858H60.0162V9.37195H64.0691V6.03448H60.0162V3.50195H64.3093ZM71.7498 7.13038H70.5485V3.35743H71.7508C73.0803 3.35743 73.7475 3.98626 73.7475 5.24391C73.7475 6.50443 73.0803 7.12943 71.7508 7.12943L71.7498 7.13038ZM76.288 1.50924C75.4542 0.627732 74.2558 0.184587 72.6907 0.184587H66.9264V15.3243H70.5475V10.3032H72.6907C74.2558 10.3032 75.4533 9.86295 76.287 8.97858C77.1179 8.0942 77.5333 6.85091 77.5333 5.24391C77.5333 3.63691 77.1179 2.39457 76.287 1.50924H76.288Z" fill="#F16521"/>
  <path d="M2.97591 13.2205V2.21169H7.28128V0.10791H0.908203L0.911036 13.2205H0.908203L0.911036 13.7921V15.3214H0.918589V15.3243H7.28128V13.2205H2.97591ZM22.2085 13.2205V2.21169H17.9031V0.10791H24.2762L24.2733 13.2205H24.2762L24.2733 13.7921V15.3214H24.2658V15.3243H17.9031V13.2205H22.2085Z" fill="white"/>
  <path d="M10.6902 11.5202H14.4943V15.3243H10.6902V11.5202ZM10.6902 0.10791H14.4943V9.88985H10.6902V0.10791Z" fill="#F16521"/>
</svg>