<?xml version="1.0" standalone="no"?>
<!DOCTYPE svg PUBLIC "-//W3C//DTD SVG 20010904//EN"
 "http://www.w3.org/TR/2001/REC-SVG-20010904/DTD/svg10.dtd">
<svg version="1.0" xmlns="http://www.w3.org/2000/svg"
 width="700.000000pt" height="700.000000pt" viewBox="0 0 700.000000 700.000000"
 preserveAspectRatio="xMidYMid meet">
<metadata>
Created by potrace 1.14, written by Peter Selinger 2001-2017
</metadata>
<g transform="translate(0.000000,700.000000) scale(0.100000,-0.100000)"
fill="#000000" stroke="none">
<path d="M3450 6283 c-28 -11 -174 -80 -365 -173 -104 -51 -226 -109 -270
-130 -44 -21 -143 -68 -220 -105 -77 -37 -189 -91 -250 -120 -60 -29 -186 -90
-280 -135 -93 -45 -258 -124 -365 -175 -637 -304 -645 -308 -670 -379 -7 -19
-9 -521 -7 -1490 2 -1453 2 -1461 23 -1496 20 -35 67 -67 208 -144 37 -21 225
-125 417 -232 192 -107 351 -194 353 -194 2 0 55 -30 117 -66 90 -53 512 -290
829 -465 25 -14 142 -79 260 -145 271 -151 268 -150 440 -55 63 35 140 77 170
94 48 26 286 157 378 209 18 10 43 24 55 32 12 7 123 69 247 136 124 68 239
134 256 147 17 13 34 23 37 23 3 0 45 23 93 50 48 28 88 50 90 50 1 0 33 17
71 39 37 21 95 53 128 71 52 29 187 104 350 195 28 15 100 55 160 88 205 112
228 128 253 177 l22 44 0 1446 c0 947 -4 1458 -10 1482 -9 32 -73 108 -91 108
-4 0 -109 50 -234 110 -125 61 -228 110 -230 110 -1 0 -98 47 -216 104 -287
138 -385 185 -789 379 -63 30 -182 87 -265 127 -166 80 -322 155 -493 236
-109 52 -158 63 -202 47z m222 -442 c296 -142 435 -209 501 -240 59 -29 84
-51 58 -51 -5 0 -100 -44 -212 -98 -112 -55 -249 -120 -304 -147 -55 -26 -125
-60 -155 -75 l-56 -28 -49 23 c-48 22 -248 118 -556 267 l-147 70 77 38 c42
21 119 58 171 83 328 156 419 200 450 217 19 11 45 18 57 15 12 -3 86 -36 165
-74z m-1156 -552 c291 -140 467 -224 532 -254 34 -16 62 -32 62 -36 0 -4 -96
-60 -212 -125 -117 -65 -229 -126 -248 -137 -19 -11 -95 -53 -168 -94 l-134
-74 -111 62 c-62 34 -132 74 -157 87 -25 14 -101 56 -170 95 -69 38 -159 88
-200 110 -41 22 -88 49 -104 58 l-30 18 155 74 c84 41 197 95 249 120 52 24
156 74 230 110 74 36 136 66 136 66 1 1 78 -36 170 -80z m2217 42 c45 -21 150
-71 232 -111 83 -40 219 -106 304 -146 85 -41 152 -76 150 -78 -5 -4 -139 -79
-219 -123 -30 -16 -91 -50 -135 -75 -44 -25 -155 -87 -247 -138 l-167 -92 -51
31 c-28 17 -52 31 -54 31 -2 0 -75 40 -162 89 -88 48 -187 103 -222 122 -35
19 -71 39 -80 44 -9 6 -56 32 -105 58 -48 27 -85 53 -82 58 6 8 51 31 325 160
58 28 177 85 265 129 88 43 161 79 163 79 1 1 39 -16 85 -38z m-3301 -653 c14
-10 29 -18 32 -18 3 0 57 -29 119 -64 136 -76 168 -95 367 -204 85 -47 171
-95 190 -107 l35 -22 -1 -501 c0 -276 -3 -504 -6 -508 -4 -3 -64 26 -133 65
-70 39 -130 71 -132 71 -3 0 -17 8 -31 18 -15 10 -65 39 -112 64 -47 25 -125
69 -175 97 -49 28 -118 65 -152 83 l-63 33 0 512 c0 568 -5 528 62 481z m1894
-480 l-1 -511 -30 -17 c-16 -9 -55 -30 -85 -47 -381 -210 -629 -348 -645 -359
-11 -8 -25 -14 -31 -14 -9 0 -12 126 -12 509 l1 509 331 183 c182 101 340 189
351 195 11 6 40 23 65 37 25 14 47 26 51 27 3 0 5 -230 5 -512z m747 295 c216
-119 395 -221 398 -226 9 -13 8 -1017 -1 -1017 -4 0 -59 29 -121 63 -179 100
-209 117 -284 158 -38 21 -142 78 -230 127 l-160 89 -1 512 c0 281 2 511 4
511 2 0 180 -98 395 -217z m1557 -296 l0 -512 -67 -36 c-38 -20 -90 -49 -118
-64 -183 -103 -299 -167 -360 -200 -38 -21 -83 -46 -100 -55 -71 -41 -145 -80
-152 -80 -11 0 -8 1009 3 1019 8 8 786 441 792 441 1 0 2 -231 2 -513z m-2010
-877 c36 -20 99 -55 140 -77 41 -23 122 -68 180 -100 58 -33 134 -76 170 -96
192 -105 183 -98 163 -111 -10 -7 -94 -55 -188 -106 -93 -51 -262 -144 -374
-207 -188 -106 -206 -114 -230 -103 -14 6 -89 47 -166 90 -77 43 -165 91 -195
107 -30 17 -111 62 -180 100 -69 39 -149 83 -178 98 -29 15 -52 29 -50 30 6 6
180 105 184 105 2 0 38 20 80 45 41 25 77 45 79 45 2 0 43 23 91 50 48 28 88
50 89 50 2 0 32 16 67 36 34 20 88 50 118 66 30 17 59 34 64 39 10 9 33 -2
136 -61z m-1810 -274 c195 -108 357 -199 359 -202 7 -7 7 -994 0 -1005 -3 -6
-37 8 -75 30 -39 21 -94 52 -124 69 -30 16 -76 41 -102 56 -27 14 -69 38 -95
52 -122 68 -341 189 -368 204 l-30 17 -3 511 -2 511 42 -23 c24 -13 203 -112
398 -220z m3803 -784 c-10 -8 -126 -73 -258 -146 -132 -73 -266 -147 -297
-164 -32 -18 -84 -46 -115 -63 -32 -18 -62 -35 -68 -39 -5 -4 -19 -10 -30 -14
-20 -6 -20 -2 -18 487 1 270 2 499 2 508 1 9 40 37 94 66 50 28 119 66 152 84
33 18 74 40 90 50 17 10 57 32 90 50 33 17 96 52 140 77 44 25 105 59 135 75
30 17 64 36 75 44 20 13 20 11 23 -494 2 -477 1 -509 -15 -521z m-2920 294
c53 -29 86 -48 277 -153 74 -42 155 -87 180 -100 25 -14 70 -39 100 -55 30
-17 60 -34 65 -39 6 -7 10 -193 10 -519 l1 -508 -31 15 c-16 9 -84 46 -150 83
-66 37 -145 80 -175 97 -30 17 -75 41 -100 55 -25 14 -108 61 -185 103 -77 43
-145 81 -152 87 -8 6 -11 144 -11 519 l1 509 61 -34 c33 -19 82 -46 109 -60z
m1785 -419 l0 -513 -171 -94 c-93 -52 -195 -109 -226 -126 -31 -17 -128 -71
-216 -120 -87 -49 -166 -92 -175 -95 -15 -6 -16 41 -16 504 l1 512 400 222
c220 122 401 222 401 223 1 0 2 -231 2 -513z"/>
</g>
</svg>
